<svg width="2000" height="2000" viewBox="0 0 2000 2000" fill="none" xmlns="http://www.w3.org/2000/svg">
<path d="M655.361 215.883C655.361 217.569 667.038 244.543 702.239 323.966C723.531 372.107 741.39 413.131 741.905 415.191C742.592 417.252 746.713 421.373 751.178 424.182C778.652 441.603 973.893 581.906 972.691 583.404C971.661 584.341 902.802 559.053 793.592 517.655C642.827 460.522 622.562 452.842 530.008 419.125C443.808 387.468 368.767 361.243 364.818 361.243C362.929 361.243 365.848 365.551 400.363 410.883C436.251 458.462 532.927 587.151 534.473 589.398C534.644 589.773 580.321 602.511 635.957 617.871C691.42 633.044 777.451 657.021 827.076 671.07C876.702 684.932 927.702 699.355 940.409 702.914C962.56 709.096 963.075 709.283 954.146 709.47C948.995 709.658 909.156 707.597 865.712 704.975C798.744 701.041 739.328 697.857 587.533 689.802L565.21 688.678L570.361 694.297C573.28 697.295 606.765 731.2 645.058 769.787C683.178 808.375 719.411 844.715 725.249 850.897L736.067 861.949L781.228 859.701C805.955 858.39 848.548 859.701 894.904 861.949C940.409 861.949 941.878 861.892 977.837 868.878L1015.96 881.43L983.338 916.646C940.753 962.727 914.823 988.577 872.238 1027.16C798.057 1094.6 792.217 1082.8 743.279 1109.96C676.482 1146.67 609.855 1164.84 540.998 1164.84C420.111 1164.84 311.585 1111.27 193.445 993.447C182.456 982.395 96.0824 891.733 88.3553 882.741C86.123 880.306 94.7089 906.156 105.699 935.378C118.921 970.032 147.941 1035.22 162.365 1062.76C177.991 1092.54 209.758 1143.86 226.758 1166.91C243.758 1190.13 275.526 1225.35 297.333 1245.58C370.484 1313.2 462.182 1358.91 564.351 1379.14C657.763 1397.5 786.209 1394.5 867.945 1372.02C879.449 1368.84 883.742 1368.27 883.742 1369.77C883.742 1372.58 864.339 1403.68 844.935 1431.78C827.248 1457.44 795.137 1500.33 764.057 1539.48C740.875 1568.89 734.522 1579.2 734.35 1587.81C734.35 1594.18 754.441 1667.42 773.158 1729.05L789.471 1783H932.853C1018.02 1783 1076.06 1782.25 1076.06 1781.31C1076.06 1779.07 1018.88 1718.56 1010.3 1711.63C1005.32 1707.7 996.559 1704.51 974.408 1698.71C942.298 1690.28 938.348 1688.59 931.651 1680.54C925.298 1673.04 906.581 1639.7 894.904 1615.16C885.46 1595.49 885.116 1594.18 887.349 1588.94C890.096 1582.94 910.531 1568.14 1015.96 1496.03C1121.05 1424.1 1127.92 1419.6 1132.9 1419.6C1143.72 1419.6 1143.03 1422.41 1118.82 1468.68C1088.43 1527.12 1067.65 1570.58 1065.76 1579.76C1064.56 1585.56 1064.9 1588.75 1067.31 1594.93C1071.26 1604.3 1093.41 1640.82 1115.22 1673.42C1151.1 1726.99 1171.88 1760.15 1179.78 1776.82L1182.7 1783H1330.2C1411.42 1783 1477.88 1782.44 1477.88 1781.5C1477.71 1778.69 1396.83 1710.69 1388.76 1706.57C1384.12 1704.33 1364.2 1698.71 1344.28 1694.02C1324.37 1689.53 1305.65 1684.47 1302.9 1682.78C1299.98 1681.29 1287.1 1666.67 1274.22 1650.56C1261.17 1634.27 1241.77 1611.23 1231.12 1599.24C1214.98 1581.07 1211.72 1576.39 1211.72 1571.7C1211.72 1559.9 1236.1 1533.86 1291.05 1486.85C1326.43 1456.5 1349.09 1432.52 1373.48 1399.74C1393.74 1372.4 1422.76 1328.19 1434.95 1306.27C1439.93 1297.47 1445.08 1289.6 1446.63 1289.04C1448 1288.29 1451.61 1288.85 1454.53 1289.97C1462.94 1293.53 1486.12 1309.46 1494.54 1317.32C1506.9 1329.12 1507.59 1331.75 1506.21 1363.03C1505.18 1385.88 1505.35 1389.82 1507.24 1388.69C1523.9 1378.01 1561.33 1347.67 1564.42 1342.42C1565.8 1339.99 1568.54 1324.25 1570.78 1304.96L1574.73 1271.62H1580.22C1585.2 1271.62 1586.58 1273.3 1600.48 1295.78C1608.55 1308.89 1615.25 1320.88 1615.25 1322.01C1615.25 1326.13 1630.88 1376.52 1632.08 1376.52C1634.31 1376.33 1683.08 1310.77 1682.56 1308.71C1682.22 1307.58 1672.6 1287.91 1661.27 1265.25C1640.49 1224.04 1633.97 1213.74 1625.38 1208.68C1622.81 1207.37 1592.76 1198.56 1558.41 1189.2C1515.49 1177.58 1494.88 1171.03 1492.65 1168.59C1489.56 1165.22 1489.56 1164.47 1496.77 1127.01C1501.06 1105.09 1506.04 1084.3 1508.79 1077.74C1514.28 1064.25 1522.53 1053.01 1573.18 989.701C1610.96 942.496 1621.95 931.07 1633.11 927.136C1636.03 926.012 1685.14 915.335 1742.32 903.346C1850.84 880.681 1856.34 879.182 1866.13 867.756C1871.11 862.136 1904.76 806.127 1908.37 797.698C1913.35 786.084 1913.18 769.038 1908.03 749.182C1901.5 724.643 1890.34 691.113 1886.39 683.995C1881.58 675.753 1870.94 665.638 1860.8 660.018C1844.84 651.214 1579.02 556.805 1563.22 554.37C1550.86 552.496 1534.72 554.182 1523.38 558.491C1493.16 570.104 1407.99 608.692 1399.4 614.687C1393.39 618.62 1384.81 626.675 1380 632.482C1371.24 643.159 1370.56 644.658 1262.72 873.563C1245.2 910.652 1213.09 881.055 1211.72 881.43C1207.43 882.367 1184.93 846.715 1179.27 831.917C1174.29 819.179 1152.48 816.243 1169.48 753.491C1191.29 672.943 1196.27 651.963 1196.27 641.099C1196.27 628.174 1189.4 602.136 1179.27 575.537C1169.48 550.436 1158.32 533.577 1143.72 521.963C1107.66 493.116 830.166 318.16 694.855 238.549C681.118 230.494 666.694 222.064 662.744 219.629C658.623 217.381 655.361 215.696 655.361 215.883Z" fill="black"/>
</svg>
